<?xml version="1.0" encoding="UTF-8"?> <svg xmlns="http://www.w3.org/2000/svg" xmlns:xlink="http://www.w3.org/1999/xlink" version="1.1" id="Layer_1" x="0px" y="0px" width="100%" viewBox="0 0 246 159" xml:space="preserve"> <path fill="#FFFFFF" opacity="1.000000" stroke="none" d=" M173.000000,160.000000 C115.333336,160.000000 58.166672,160.000000 1.000008,160.000000 C1.000005,107.000008 1.000005,54.000011 1.000003,1.000015 C82.999992,1.000010 164.999985,1.000010 246.999969,1.000005 C246.999985,53.999985 246.999985,106.999969 247.000000,159.999969 C222.500000,160.000000 198.000000,160.000000 173.000000,160.000000 M105.550926,146.032471 C111.049210,148.021652 116.405777,150.730743 122.075905,151.846985 C133.161438,154.029297 141.734055,148.184143 149.889099,141.630554 C168.042297,127.042213 188.057281,115.339142 208.278748,103.933807 C219.197739,97.775261 230.013519,91.411621 240.630386,84.749329 C245.563232,81.653862 245.237610,78.135757 239.856110,75.045891 C225.081772,66.562988 210.165421,58.326832 195.281250,50.036121 C189.670898,46.911064 183.751526,44.276268 178.393692,40.774364 C162.076462,30.109333 145.837219,19.312834 129.847900,8.165481 C124.913017,4.725000 120.341835,4.120587 115.570068,7.200977 C102.444443,15.674147 89.565956,24.529909 76.447830,33.015007 C58.213753,44.809216 39.884964,56.458363 21.516640,68.042633 C17.311008,70.694984 12.622896,72.585968 8.437312,75.265480 C3.487386,78.434303 3.907893,82.412895 9.205647,85.002602 C11.796510,86.269096 14.549681,87.220856 17.080082,88.590836 C30.213446,95.701302 43.540165,102.499557 56.324173,110.196136 C66.534752,116.343399 76.178612,123.463661 85.856079,130.453766 C92.435219,135.205917 98.637787,140.479416 105.550926,146.032471 z"></path> <path fill="#000000" opacity="1.000000" stroke="none" d=" M105.279839,145.776123 C98.637787,140.479416 92.435219,135.205917 85.856079,130.453766 C76.178612,123.463661 66.534752,116.343399 56.324173,110.196136 C43.540165,102.499557 30.213446,95.701302 17.080082,88.590836 C14.549681,87.220856 11.796510,86.269096 9.205647,85.002602 C3.907893,82.412895 3.487386,78.434303 8.437312,75.265480 C12.622896,72.585968 17.311008,70.694984 21.516640,68.042633 C39.884964,56.458363 58.213753,44.809216 76.447830,33.015007 C89.565956,24.529909 102.444443,15.674147 115.570068,7.200977 C120.341835,4.120587 124.913017,4.725000 129.847900,8.165481 C145.837219,19.312834 162.076462,30.109333 178.393692,40.774364 C183.751526,44.276268 189.670898,46.911064 195.281250,50.036121 C210.165421,58.326832 225.081772,66.562988 239.856110,75.045891 C245.237610,78.135757 245.563232,81.653862 240.630386,84.749329 C230.013519,91.411621 219.197739,97.775261 208.278748,103.933807 C188.057281,115.339142 168.042297,127.042213 149.889099,141.630554 C141.734055,148.184143 133.161438,154.029297 122.075905,151.846985 C116.405777,150.730743 111.049210,148.021652 105.279839,145.776123 M168.408295,46.035450 C152.550583,35.645420 136.692871,25.255394 120.890808,14.901835 C94.494301,34.866802 65.895691,51.460846 40.938206,72.151260 C68.793472,89.203613 96.106781,105.924194 123.908699,122.943893 C126.018654,121.490189 129.209335,119.303802 132.387939,117.100014 C155.047119,101.389915 177.717834,85.696304 200.325638,69.912613 C201.647293,68.989891 202.453964,67.329514 202.985931,66.659882 C191.319168,59.739361 180.159592,53.119690 168.408295,46.035450 z"></path> <path fill="#FFFFFF" opacity="1.000000" stroke="none" d=" M168.704163,46.267735 C180.159592,53.119690 191.319168,59.739361 202.985931,66.659882 C202.453964,67.329514 201.647293,68.989891 200.325638,69.912613 C177.717834,85.696304 155.047119,101.389915 132.387939,117.100014 C129.209335,119.303802 126.018654,121.490189 123.908699,122.943893 C96.106781,105.924194 68.793472,89.203613 40.938206,72.151260 C65.895691,51.460846 94.494301,34.866802 120.890808,14.901835 C136.692871,25.255394 152.550583,35.645420 168.704163,46.267735 M145.016739,83.475662 C146.919830,82.314140 148.745590,80.993416 150.741898,80.023819 C155.063522,77.924789 159.638107,76.289856 163.769958,73.882759 C165.603592,72.814537 167.735947,70.313461 167.701080,68.501892 C167.662109,66.476578 165.768997,63.774448 163.905930,62.612663 C152.044022,55.215717 139.785172,48.444427 128.057281,40.849110 C123.737137,38.051254 120.924461,38.495258 117.097649,41.279232 C105.519623,49.702114 94.310890,58.762299 80.759232,64.076538 C79.750259,64.472206 78.990105,65.545250 78.162094,66.352440 C73.498772,70.898575 73.513123,71.246185 79.270599,74.010948 C91.945251,80.097366 104.973755,85.487907 114.829552,96.217606 C121.483879,103.461960 123.658661,103.286583 131.052383,96.427811 C133.859100,93.824173 136.425049,90.962051 139.209549,88.332977 C140.862152,86.772591 142.726929,85.436905 145.016739,83.475662 z"></path> <path fill="#000000" opacity="1.000000" stroke="none" d=" M144.756531,83.737930 C142.726929,85.436905 140.862152,86.772591 139.209549,88.332977 C136.425049,90.962051 133.859100,93.824173 131.052383,96.427811 C123.658661,103.286583 121.483879,103.461960 114.829552,96.217606 C104.973755,85.487907 91.945251,80.097366 79.270599,74.010948 C73.513123,71.246185 73.498772,70.898575 78.162094,66.352440 C78.990105,65.545250 79.750259,64.472206 80.759232,64.076538 C94.310890,58.762299 105.519623,49.702114 117.097649,41.279232 C120.924461,38.495258 123.737137,38.051254 128.057281,40.849110 C139.785172,48.444427 152.044022,55.215717 163.905930,62.612663 C165.768997,63.774448 167.662109,66.476578 167.701080,68.501892 C167.735947,70.313461 165.603592,72.814537 163.769958,73.882759 C159.638107,76.289856 155.063522,77.924789 150.741898,80.023819 C148.745590,80.993416 146.919830,82.314140 144.756531,83.737930 z"></path> </svg> 